<?xml version="1.0" encoding="UTF-8"?>
<svg width="47px" height="47px" viewBox="0 0 47 47" version="1.1" xmlns="http://www.w3.org/2000/svg" xmlns:xlink="http://www.w3.org/1999/xlink">
    <!-- Generator: Sketch 43.2 (39069) - http://www.bohemiancoding.com/sketch -->
    <title>cross</title>
    <desc>Created with Sketch.</desc>
    <defs></defs>
    <g id="Page-1" stroke="none" stroke-width="1" fill="none" fill-rule="evenodd">
        <path d="M25.9453125,23.4140625 L46.3007812,3.05859375 C46.6523455,2.70702949 46.828125,2.28515871 46.828125,1.79296875 C46.828125,1.30077879 46.6523455,0.878908008 46.3007812,0.52734375 C45.949217,0.175779492 45.5214869,0 45.0175781,0 C44.5136694,0 44.0859393,0.175779492 43.734375,0.52734375 L23.4140625,20.8476562 L3.09375,0.52734375 C2.74218574,0.175779492 2.31445564,0 1.81054688,0 C1.30663811,0 0.878908008,0.175779492 0.52734375,0.52734375 C0.175779492,0.878908008 0,1.30077879 0,1.79296875 C0,2.28515871 0.175779492,2.70702949 0.52734375,3.05859375 L20.8828125,23.4140625 L0.52734375,43.734375 C0.175779492,44.0859393 0,44.50781 0,45 C0,45.49219 0.175779492,45.9140607 0.52734375,46.265625 C0.714844687,46.4531259 0.919920762,46.5878902 1.14257812,46.6699219 C1.36523549,46.7519535 1.59374883,46.7929688 1.828125,46.7929688 C2.03906355,46.7929688 2.25585826,46.7519535 2.47851562,46.6699219 C2.70117299,46.5878902 2.90624906,46.4531259 3.09375,46.265625 L23.4140625,25.9453125 L43.734375,46.265625 C43.9218759,46.4531259 44.126952,46.5878902 44.3496094,46.6699219 C44.5722667,46.7519535 44.7890614,46.7929688 45,46.7929688 C45.2343762,46.7929688 45.4628895,46.7519535 45.6855469,46.6699219 C45.9082042,46.5878902 46.1132803,46.4531259 46.3007812,46.265625 C46.6523455,45.9140607 46.828125,45.49219 46.828125,45 C46.828125,44.50781 46.6523455,44.0859393 46.3007812,43.734375 L25.9453125,23.4140625 Z" id="cross" fill="#F2F2F2"></path>
    </g>
</svg>